<?xml version="1.0" encoding="utf-8"?>
<!-- Generated by IcoMoon.io -->
<!DOCTYPE svg PUBLIC "-//W3C//DTD SVG 1.1//EN" "http://www.w3.org/Graphics/SVG/1.1/DTD/svg11.dtd">
<svg role="img" preserveAspectRatio="xMinYMin meet" class="Globe" version="1.1" xmlns="http://www.w3.org/2000/svg" xmlns:xlink="  http://www.w3.org/1999/xlink" viewBox="25 2 505 505">
      <path fill="#1B557E" stroke="#1D2E3A" d="M277.5 504l-13-.3-13-1-13-1.8-13-2.5-12.7-3-12.6-3.7-12.3-4.4-12.2-5-11.8-5.6-11.5-6.3-11.2-6.8-10.7-7.4-10.4-8-10-8.5-9.5-9-9-9.5-8.5-10-8-10.4-7.4-10.8L61 379l-6.3-11.5-5.6-11.8-5-12-4.3-12.4-3.7-12.6-3-12.7-2.4-13-1.7-13-1.2-13-.3-13 .3-13 1-13 1.8-13 2.4-13 3-12.7 3.7-12.6 4.4-12.3 5-12 5.7-12L61 129l6.8-11.2 7.4-10.7 8-10.3 8.5-10 9-9.5 9.5-9 10-8.5 10.4-8 10.7-7.4 11.2-6.8 11.5-6.3 11.8-5.6 12-5 12.4-4.4 12.6-3.7 12.7-3 13-2.4 13-1.6 13-1 13-.4 13 .3 13 1 13 1.8 13 2.5 12.7 3 12.6 3.7 12.3 4.4 12.2 5 11.8 5.6 11.5 6.3 11.2 6.8 10.7 7.4 10.4 8 10 8.5 9.5 9 9 9.5 8.5 10 8 10.4 7.4 10.8L494 129l6.3 11.5 5.6 11.8 5 12 4.3 12.4 3.7 12.6 3 12.7 2.4 13 1.7 13 1.2 13 .3 13-.3 13-1 13-1.8 13-2.4 13-3 12.7-3.7 12.6-4.4 12.3-5 12-5.7 12L494 379l-6.8 11.2-7.4 10.7-8 10.3-8.5 10-9 9.5-9.5 9-10 8.5-10.4 8-10.7 7.4-11.2 6.8-11.5 6.3-11.8 5.6-12 5-12.4 4.4-12.6 3.7-12.7 3-13 2.4-13 1.6-13 1-13 .4z" id="sphere"/>
          <path class="Sea nws" fill="#500230" stroke="#500230" d="M305.2 297.7h-.2v.2H304.3l-.7-.3h-1.4.2v-.2h.2v-.7l-.2-.3.8-.4-1 .4H301l.3-.2v-.3h.2v.2h.4v-.2l-.2-.2v-.2h-.5v-.2l-.3-.3.2-.2h.2v-.3l-.2-.5v-.7l.4-.4-.3-.2-.2-.2h.5l.4-.2v-.4h-.4l.2-.3h.4l.2-.3v-.7l-.2-.2.3-.7h.2v.3l-.2.2.5.4v-.5h.2l.3.2.2-.8v-.5l-.2-.3H302v.2-.4l.2-.2v-.2h-.7v.2h-.3l.5-.3h.2v-.3l-.2-.5v-.2h-.2v-.2h-.2l-.4-.2-.2.2h-.4l-.3.3h-.4v.2l-.3.4v1h.3v-.2h.2v.8l-.2-.2v-.2h-.2v.3h-.2v-.9h-.4l-.2.4-.3.6.2.2v.3h-.4l-.2-.2H297v-.4l-.2.2v1.2l.2 1v.5-.3h.4v.2l.3.4v.2l-.2.2-.3.2v-.6h-.2v.5l.2.4v.8l.3.2v-.3l.5.4h.4v.2l.2.4V295.5h-.2v-.2h-.2v.5h.2l.3-.3V296.3h-.5v-.4l-.2.5V297.2v-.4l.2-.2h.4l.2.2v.2h.2l.2.3.2.2.2.2.2.2-.2.3h-.2l-.4.2v.5h.5v.5h.3l.2.2v.2h-.4l.2.3.2.2h1l.3.2v.2l.5.4h.2l.2.2h.5-.8l-.5-.5-.2-.2-.2-.2H300.7l-.3.2h-.4v-.2h-.3v.4l-.2.6.2.3V302.8 302h-.7v.4h.2v.4h-.5V302l-.2-.2v-.3h-.9l-.3.2H296v.2l-.2.2V303.3h.8v.2h-.2v.3l-.4-.2-.4-.2h-.2v-.4h-1.1l-.4.2h-.8l-.2.2-.7.4-.3.4V305h-.3v.2h-.2v.2l-.3.2-.5.3h-.2l-.2-.2-.2.8V307.7h.5l.2.2h.4v-.7l-.2-.2h.4l.2-.3v-.2h-.2l-.2-.3V305.3h.3v-.2h.4v.7h.7v1h.6v.7h-.2v.2h-.2l-.2.2v.2h-.2l-.2.2h-.2l-.2-.2h-.4l-.4-.2h-.2l-.2-.2h-.7l-.2.3v.4h-.2v.2l-.7 1h-.2v.5l-.5.2h.2l.3.2h.2v.2h.2-.2v.2h-.2.2v.2h-.5l.3.3h.5v.2H288.5v-.2h-.2l-.2-.2h-.2v-.2h-.8l-.2.2-.2.2.3.3h.2l.7.2.2-.2h.7v.2h.2v.5-.2l-.2-.2h-2.2l-.6.2h-.2l-.3.3v.2l-.4.2-.8.5h-.4l-.4.2-.6.2h-.2l-.4.2h-.2l-.2.3v.2l-.2.5V317h.2-.2v.8l-.2.3v.2h-.2v.2l-.4.3-.5.3-1 .2h-.4v.2l-.3.2-.3.2h-.3v.2l-.3.7v.2H279h-.5l-.3.2h-.2v.2h-.3v.2h-1.7l-.3-.2h-.3v-.2h-.8l-.2-.3v-.2h-.2v-.3l.2-.2v-.2h-1.3l-.5-.2h-.2v.2h.2v.7l.2.6.2.2.3.4v1.9l.2.2.4.2h-1.4l.2-.2h-.5v.6l-.2-.3-.2-.2h-.5v-.2l-.5.2-.8.6-.3-.5-.2-.2-.5-.6h-.2l-.3-.2-.4.2h-.5V324h-.3l-.2-.2h-.3v.2h-.4v-.2h-1l-.6.2v.2h-.7v.2l-.2.4v.4h1.4l.3.2h-.8v-.2l-.3.2.3.5v-.2h.2v-.2l.5.2v.5h-1.2v.2h.6v.2l-13.3-1.4-15.5-3.5-15.2-3.7 8.2-28.4 9-29 26 5.7v.3h.2v-.2l3 .2h21.7l-.2.2h-.2v.2H289.7h-.2v.2H291v-.2h.4-.4v.2h-1.7l-.3-.2h-.4l-.2.3-.5.4h-.2v.5h.6-.2.5-.2v.4l.6.3.2-.2h.4l-.4.2H288v.2h-.2l.2.3h.5l.3-.2h.4-.4l-.5.2-.4.4h.4v.2h-.2v.2h.4l.3.3v-.2h.2l.4-.3H291.2V269.6l.3-.6v.5l-.2.2.3.2h.4v.2l.5-.2h.3V268.6h.4-.2v.4l-.2.3v.3h.2l-.2.4h-.2l-.2.2h-.2v.3-.2l-.3-.2h-.7v.3l-.3.2h-.2l-.4-.2H289.8l-.2.2h-.3l-.2.2-.3.2v-.2h-.5v.2l-.2.2.2.5h.5v-.2H289.4h-.2l-.4.5h.2l.2.3v.3l-.2-.3-.2-.2h-.5.2v.2h.2l.3.4h-.2v.2h.4l.3-.3v-.2h.4v1.2h-.5v-.2h-.2v-.2h-.2v.5l-.2.3v.3l.4.2-.2.2h.2v.3h.2v-.2l.3-.4v-.3h.3v.2l-.3.6h.2l.2.4v.2h.3V274h.4v-.4l.2-.2h.2l.2-.2h.4l.3-.3.2-.3.2-.2v.3h.3-.5v.2h-.2l-.2.4v.8h-.2v.4-1.3l.2-.2h-.4l-.3.3v.2l-.3.6v.5h-.2v.4h-.4V276l.2.2H291v-.2h.2l.3-.2-.5.5h-.5l-.2.3h-.3v.7l-.2-.2v-.7l-.3.4-.2.5v.3l.2.3.3.4h.2l.2-.2v-.2.2l.5-.2-.2-.3h-.2.2l.2-.2h.6-.4v.5l.4-.3v-.2l.2-.4h.5l-.4.3-.3.4v.2h-.2l.3.3h.4v-.2h.5-.4l-.4.4-.2.2v.2l-.2.2h-.2v.2l.2.3v.2l.3.2.2-.4.2-.2h.4v-.2h.6-.3l-.5.3-.3.2v.2h.2v.2h-.2l-.2-.2-.2-.2h-.4l-.4-.3v.8l-.2.4.2.3.3.5.3.3h.4v.2h.2v.2h.3l.2.2h.2v.2h1l-.2.2-.2.2v.4h.4v-.3l.4.4.3.2.3-.3h1.1l.5-.2h.2l.5-.2h.2v-.3l.3-.4h.3l.3-.5v-.4h.2l.3-.5.2-.2.3-.2.2-.3v-.5l.3-.2.2-.2.2-.3v-.2h-.2l-.2-.3.6.3v.2h.4v-.2l.3-.2h.2v.2l.2-.8v-.3h.3v-.6h-.2l-.2-.2-.2-.2h.2v-.6h-.2v-.3l.2.2v.2l.2.3v.3h.2v-.2h.2v-.4h-.2l-.2-.4V274.3h.3v-.2h.2v.3l-.2.2v-.2l-.2.2v.4l.2.4v.3l.2.2v.6l.4.5v.3h.7v.2h.8l.2.3v-.2h-.2v-.2h-.2l-.2.2V278.2h.2v1h.2v.2l.2.3v1h.4v.3h.5v-.2l.2-.2.4.4V282.3h-.2v.2l.2.2v.4h.4v.4h.2v.6l.2.2v-.2l.2-.2v.2l.3.5v.5l.3.6.3.3v.3h.4l.3.2v.4l.3.2h.4l.3.3v.5h-.4v.4h.2l.3.5h-.8l.4.5h.2v.2l1 1 .2.2v.7l.2.7.8 4.2-.5.2h-.4v.2l-.3.2v.2h-.2v-.4l.5-.3H310v-.2H309v.4l-.3.3-.5.6h-.3l-.7.3-.3.2v.3h-.2v.5l-.2.2h-.4l-.2-.3-.2.2h-.2v.2h-.3v.4-.5h-.2v-.2h.2l.4-.5V297.6h-.4zm3-4.6v-.2h-.7V292l.2-.3v-.2h.2v-.2h.2v-.8h-.2V290l-.2-.3h-.7l-.6.7-.2.2h.4l.3.7v.5h-.3v-.2h.2v-.2l-.2-.2-.2-.4h-.2V291.8v-.2l-.2-.3v-.2h-.2v-.7h-.2v.2H304.6h.8v.4l-.3.5-.3.3h-.8.4v.2l.2.3.2.5v.5l.3.6H306.5v-.2l.3.2v.4h.2v.2h.7v-.6h-.5v-.2l.4-.2h.2v-.2h.5v-.2zm-.4 1.6v.3l.2-.2v-.2h.7v-.3h-.7zm0 .6v-.2h-.8v-.2h-.2l-.2.2.2.3.3.3.3.2V296.5h.2V295.4h.2v-.2zm-.6 1v-.5l-.4-.4h-.2v-.2.3l-.2.2H305.8v-.2l-.2-.2h-.2l-.2.2h-.2v.8h.7v.2h.2v.2h.4v-.2h.7zm-3 0h.2v-.9l.2-.2v-.6.5l-.2.2h-.2v1zm-.7-.2v-.2l-.3-.2h-.3l.2.3h.3zm-41-12.7h-.2.3l.2-.2h.4l.2-.2h-.4v-.2l.2-.2v-.2l.2-.3v-.4h-.2l-.2.2-.5.3-.2.2h-.3V283h-.3v.4-.4l-.2-.2h-.2v.2l-.2.2.2.2V283.8h.4v.2l-.4.3h-.2l.3.5.6-.4v-1h.3l-.2.2v.4h.4l.2-.2h.2v-.5zm3.7-2l-.3.5-.3.6v.2l.2.2h-.8v.5h.2v.4h-.2l-.2-.2v.2l.3.4.2.2.2.4-.3-.2h-.3l-.5-.2v.7-.2l-.2-.3h-.2v1l.2.3h.4-.2v.2l-.3-.2h-.2v.8h.8v-.2.2l-.2.2v.2l.4.2H264v.3l.2.2h.2-.8v.2l.3.2h.4-.5l-.4.4h.6v.2h-.4v.5h-.2v-.2h-.6v.2h-.2v.2H263.8l.5.2h-1v.4h.2l.2.2h.2v.2h.2v-.2l.7-.5.3-.3v-.2h.2l-.2.3-.2.2-.2.3v.2h.3-.3l-.2.3H265.2v-.2.2l-.2.2h-.6l-.2.2h-.2v1.2h-.2v.3-.2.5h-.2v1.3l-.2.4v.3h-.2v.4H264v-.3l.2-1v-.2h.2v-1.4h.3v-.2l.2-.2h.2l.3-.4h.3l-.4.2-.3.3-.3.4-.2.5v.2h.3v-.2h.2l.2.2h.2v-.5h.2v-.5h.2l-.2.2v.2h.2l.4.2h.3H265.6l-.2 1h.2v.2h.2v.2h.2v.7h-.2v.2l-.3.4v.4l-.3.2h-.2v.5h-.3v.2l-.2.2v.4h.2v.2h.2v.7h.2v-.5l-.2-.2v-.2H265.7v.2h.3v.6H266.7v-.3l-.2-.2v-.4l.2.2.5.4h.8v-.2H268.5v-.5h1.3v.2h-.5l-.3.2v.3l-.5.7-.2.5.2.3v.2h.2v.5l.2.2.2.7.2.2.6-.3.3-.4v.5l-.2.3v.2h-.3v.8h.2v.2h-.2l-.3.4v.2l.2.6v.2l.3.2h.5-.2v.2h-.5v-.4h-.2v-.2h-.3v.4l.2.2h-.4v-.3h-.5l-.4.2h-.9v.2h-.5l-.3.4v.5l-.4.2h-.2v.2h-.2l-.3.2v.2h.5l.2-.2h.2l.2-.2h.4v.5l.2.3-.2.3v1.5l-.3.2-.3.2-.5.2h-.7v.2l-.3.3h-.6l-.2.2h-.4v.2h.3v.4l-.4.2h.5l.2.2h.2v-.2h.2v.2h-.3l-.2.3h1v-.2H265.5l.6.2h.5v.2h-.5v.3h.8v-.2h.3l.2.3.3.4.3.3h1v-.2h.2l.3-.2h.8l.2-.2.2-.2.5-.4h-.2l-.2.4-.3.3-.3.2-.3.2-.3.3v.5l-.2.2H268l-.2-.2H266V314l-.3.3h-.5l-.2.3v.7l-.3.2h-.2v.2l-.2.2h-.3l-.4.3v.2l-.4.5h-.2l-.2.2-.5.2H261.6v.5h.3v-.2h.2l.4.2.2.3v.2h.2l.3-.2V317.3h.4l.3-.2.2-.3.3-.2h1.3l.2.3h.2l.3.2v.2h.4l.4-.8.2-.4v-.2h.2l.5-.4h.8v-.2h.4l.3.2.4.3h.2v.2h.2v-.3h1.3v-.2h-.2v-.2h1.2l.6-.2h.7v-.2H275v.2l.3.2.2-.2h.4l.8-.2h.4l.5.2.4.2h.2v-.2h.3v-.2h.4l.3-.2h.2v-.3H280.2v-.4h.2v-.2h.8v-.2l.2-.2v-.8h-1v.2h-1l-.2-.2h-.2l.2-.2h.2l-.3-.2h-.2l-.2.2v-.2h.2l.5-.2h.6v-.8H279.3l.4-.2.2-.2h.2v.2h.4l.2-.2.2-.2-.2-.4-.2-.3.3.2v.2h.2l.3-.3h.2v-.2l.2-.4V307h-.2l-.3-.3-.2-.2h-.2v-.2h-.9v-.2h-1.1l-.2.3v.2l-.2.2v.2l-.5-.2v-.2h-.2v-.2h-.2l.4-.5.2-.3h.2v-.7l-.2-.5v-.2l-.3-.3h-.2l-.2-.2-.4-.3-.2-.2v-.2H275.6h.8v-.2h.2l.3.3v.2h.8v.4V303l-.3-.3v-.2h-.3v-.4l-.2-.3v-.4h.2v-.2h-.4l-.3-.4v-.3l-.2-.2v-.2l-.2-.2-.7-.4h-.4l-.2-.2h-.2l-.4-.6v-.8l-.2-.2-.2-.5v-.3l-.2-.6V295l-.3-.2-.2-.2-.4-.5v-.3h-.2v-.2h-.4l-.3-.3-.3-.2-.2-.2h-.7v.2h-.2l-.2.2-.4-.2h-.5l-.4-.2h-.2v-.2H269v.2h.4l.4-.3.5-.4h.2v.2h.2l.3-.2.2-.2v-.2h-.4v-.4l-.2-.2h-.2v.2l-.6.2h-.2l.5-.4h.9v-.3h.4v-.4l.2-.3v-.3h.4l.2-.4v-.4h.2v-.4l.2-.3v-.2l.2-.5.3-.3.3-.2v-.8l-.3-.2h-1.8l-.3-.2h-.5v.2h-.2l-.3-.2H269.3l-.3.2h-.3l-.7.3-.2.3h-.2v-.2h.3v-.3h-.6v.2h-.2v-.2l.3-.3h.5v-.2.2h.2l.3-.3v-.2h.2v-.2.2H268l-.4-.2h-.2v-.3l.3.2h.4v-.2l.4-.4.4-.2.3-.2h.2v-.4h.2l.5-.2.2-.3v-.4l.3-.8h-.8v.2H269.3v-.2h-.4v.3h-1.6v-.2h-.3v.4h-.3l.2-.2-.2-.2v-.2zm3.6-.8l.2.4h.4v-.5h-.2l-.2-.3h-.2v.3zm.2-.4v.2h.7l.3.2h.3v-.2h-.2v-.2l-.2-.3-.2-.3h-.5v.5zm1.5-1v.2-.2h.3l.4-.2h-.5l-.3.2zm3.2-2.6v-.7l.2-.4V274.6l.2-.4v-.4h-.5v-.7h-.2l-.3.4-.2.3h.3l.3.5-.2.2h-.5v.3h.3l.2.2h.4v-.2h-.2.3V275.7l-.2.5v.2zm.6-2.8v-1.1h-.2v1.1zm0-.8h.4l.2-.5-.2-.2h-.2v.7zM251 310.5h.2l.2-.2h.6v.3h.7l.2-.2h.9l.4-.2.4-.2h.2l.2-.2v-.5h-.2.5v.2h-.2v.2h.7l.3-.3v-.2h.2v-.2.2h.3l.4-.2v-.4H259v-.5.4h1.2l.2.2.2-.2v-.2h-.2l-.2-.4h.4l.3-.5V306.6h.2v-.5h.2v-.2l.3-.3V304h-.3v-.3l.4-.7v-.2h-.2v-.3l-.2-.2v-.8h-.2V300.7h.2l.2.2h.2v-.2l-.2-.2.3.2h.2l.2-.2v-.5H263.4v-.4l-.2-.6v-.4.2h.2v.7h.2v-.4h.2v-.2l-.2-.4v-.2h-.8v.2h-.2v-.3h.3l.2-.2v-.4h-.2v-.2l-.6-.8V295.7h-.4l-.3-.2h-.8l-.3.2h-.3v.2h-.2v.2H259.3l.2-.3v-.2h.3l.2-.2v-.2h-.2l-.3-.4-.4-.3v.2h-.4l-.2.4.2.4v.3l-.2.2h-.2l-.2.2v-.3h.4v-.2l-.2-.7h-.2v.2h-.2v.2h.2v.4-.2l-.2-.2v-.2h-.2v.2h-.2v-.2l-.2.2h-.4l-.4.2-.4.4v.2h.2-.2v.2h.2v.2l-.4.3h-.7l-.2.2v.2h.2l.2.2h1.1v.2h-.2l-.2.3v.3h-.4l-.6.3v.2h.3v.3h-1.3l-.2-.2-.3.4-.2-.2v-.2l-.2-.2H253.2l-.4-.2h-.2v.2l-.2.2h-.2.2v-.2l-.2-.2h-.2v.2h-.2v.6-.2l.3-.3.2.2v.4l.2.3v.3h-.2v.3h.8v.2h-.2v.2h.2-.8l-.2.3v.2l.2.2h.3-1.2v.7l.4.3h.7-.2v.2h-.2l.3.3h.2v-.2h.2v-.2h.3v.3l-.2.3.3.2h1.4v.5H253.2l-.7.7h.2l-.2.2-.2.4-.2.2-.5.3-.4.2h-.3H253l.3.2v-.2h.2v-.2h.2v-.2h.3l.2.3-.4.2H252l-.3.4-.3.2v.4l.2.2H251l-.5-.3v-.2h-.2l-.3.2-.3.2v.2h.2l.3.2H251.4l-.6.3h-.7l-.3.5v.4l.3-.3h.2v.2H250.8l.7-.2h.3l-.6.2-.3.2h-.3v.2l-.3.2h-.2v.2h.9l.2-.2h.6v-.2h.3v.2h-.2l-.2.2h-.4v.2h-.3H251.7l-.2.2h-.4v.2zm8.6-22.5h.4v-.4l-.4.3zm.4-1v.2l.2.2h.2V286h-.2l-.2.6v.2zm0-1.8h.2v.2h.2v.2h.4l.2-.5h-.8l-.3.2zm2.2 6h.8v-.2h.7l.2-.2v-.2l-.2-.2h-.2l-.2-.2h-.2v-.3l-.2-.3h-.7v.3l.5.3h.2v.2h-.3l-.2.2h.5v.2h-.8zm-.6 2.5h.2v-.4h.4v.3l-.2.4v.2h.2l.4-.3v-1.3h-.8v.6l-.2.2zm2.7 1v.2h.6v-.5l-.2-.5v-.2h-.4v.2h-.2v.7zm-1.7-1.5h.3v-.3l.2-.3.3-.5.2-.2v-.2h-.2v.2l-.4.2-.3.6v.3zm2.4.4v.2h.2v-.7h-.5zm-2.5-5.3l.2-.2-.2-.2h-.2v.5zm-2.3-2.3h.4v-.2h-.4zm3 .7h.2v-.7.2l-.2.2v.2zm-2.4 3.6h.2l.2-.3h-.4v.2zm.7-.4l.2-.2.2-.2v-.2h-.2l-.4.3zm.2-3.8v.2h.2l.2-.2.5.6h-.2v-.2h-.2v.3l.3.4h.3v.2l.3-.3v.6h.2v-.2h.2l.4-.5.2-.2H263.6l-.5-.2V285h-.4V286h-.2l-.2-.2v-.2h-.2l-.3.4v.2zm3.6 14.8H266v-.2l.3-.3.2-.4v-.4h-.5v.4h-.2v.2h-.3zm.3 3v.4l.2.4.2.2h.2l.3-.2.3-.2.2-.2h-.2l-.3-.2v-.3l-.2-.2h-.6zm5.5 17.7l.2.3H272v-.2h-.7zm-1-.8h.3v-.3h-.3zm-2.8 2.4zm6-7.5v-.2h.2l.3.3.2.2h.2l.4-.4v-.2h-.2l-.5-.2-.7.3zm26.5-29h.2l1-.5h.2l.2.2h.2v.2l.3-.2v-.7l.2-.2v-.7l-.4-.5V283.8h.2v-.2h.2-.2l-.3.2-.3.3v.2h-.2l-.2.2h-.2l-.4.6v.4h-.2v.3l-.2.3v.2h-.2l-.2.3h-.7l-.3.3H297.8v.2l-.3.4v.3l-.2.2v.3h-.2v.2l.2.3h.3l.2.2.3.2v-.4h-.4v-.4h.2v-.2l.2-.2v-.4h.4v-.3h.5v-.2h.2v.2h.4zm4.4-4.7h.2l.2-.3v-.2h-.5v.5zm-2.5 13v.2h.4v.2h-.2v.2h.8v-.3l-.2-.2-.6-.3h-.2zm1.6-3.5l.2.2h.2v-.5l-.2-.3v-.2h-.2zm0-6.3h.4l.3-.4h-.4l-.2.3zm.6 9.7l.2.2h.3v-.4zm-2.3-1.8h.2l.2.3.2.3v.3l.3.3h.3v.4H304.3v-1.4l-.3-.6-.4-.3v.3l-.3.4h-.2l.2-.2v-.2l-.2-.2h-.5l-.2.2h-.2v.3h-.4zm2.3-12v.4h.2v-.2h.4l.3-.2v-.4l-.3-.2-.6.7zM291 307.7v.4h.2l.4-.3h.2v-.4h.2v-.3h-.2v-.2h-.4v.2h-.5v.3zm7-19l.2.2h.2v-.4l.2-.2v-.6h-.2l-.2.2h-.2v.3l-.2.3v.3zm-8.7-15.2h.2l.2-.2v-.8h-.2v.2h-.2v.2h-.2v.2l.2.3zm0 3h.2v-.8h-.2l-.2-.2v.8zm-.4.7v-.5h.2v.2-.3l-.2-.2-.2-.3-.2.3.2.6zm.6-1.3l.2-.4v-.2h-.3l-.3.3.3.4zm-2 35.6l.5.2h.5v-.2l-.2-.2h-.8v.2zM289 279h.2V278h-.2v1zm-.7-4.6h.3v-.3l-.2-.2-.2-.3V274.4zm1.6 31v.2l.2-.3v-.2h.2v-.3h-.2l-.3.4v.2h-.2v.2zm-2-33l.2.2v.2h.2l-.3-.5h-.2.2zm.6 1.2v-.3l-.2-.2h-.2v.2l.3.3zM291 304l.3-.2.6-.3-1 .2v.2zm-11.4 9h.3v-.2l-.3-.2h-.2v.2zm8.8-40h.2v-.2H288h.2v.2zm-17.6 8l.2-.2h-.2v.3zm28.2 16.3v-.2h-.3v.2zm-7.7 11h.4l.2.2h.2v-.5h.2l.2-.2h.2l.2-.2v-.5h-.6l-.4.3v.2h-.2l-.2.2-.3.2v.2zm-3.7-40.7h.2l.3-.2h.2l-.5-.3-.2.2v.2zm0 3.2v-.2h.2v.2h.2v-.5h-.4zm-36 28.8h-.3l.2.2.3.2.2.2v-.5h-.4zM263 268l.3.6.2.3h.2v-.7l-.4-.4zm.4-1.3v.3l.3.3v.2l.2-.4h-.2l-.2-.2zm41.8 30.5v.2h.8v-.2h-.2v-.2h-.5v.2z">
        </path>
    <path class="land" fill="#dce4e7" stroke="#0b6483333739" d="M442.5 441.8l.6-.6 1.6-1.4 1-1 1.5-1.3 2-1.8 1.2-1 1.3-1.4 2-2 3-3 1.2-1.5 1-1.2 2-2.4.6-.8 1.3-1.6.6-.4.5-.3v.2l-.4 1 .3-.3-.7.7-1 .8-.2.4-.8.8-.2.2-.4.5-8.8 9zm82.6-222l.4 1.8v2-.5l-.4-2.3-.7-5.7v-1.8l-.3-.6zm-4 59.2l-.8-4.8 1-1.6.7-.5.8.3.5 2.5-.2 2.2-.4 3.8-.7.3zM60.3 340.4l.8.4.3-1 1.3 1.7.4.8-.6 1.5-1.8-2.6zm427-222.4v.2l-1-1.7zm-2.8-4l1 1.3 1 1.3-.6-.7-1-1.4.4.6.6 1 .5.8-1-1-.5-1-2-2.2-1.7-2-1.3-2-1-1.7-1-1v-.2l1 1v-.3l1.5 1.8 1.6 2.3 1.3 1.5.2.4-1-1.6-1.2-1.6-.4-.6zM58.7 304h.4l1.5 3 .7 1.8v1l-.7-.2-1.2-2.6-1-2zM45 264.4h.4l.4 1.3.2 1 .5 2.6V273l-.8-2.6-.4-.7-.3-2.4zm9 20.8h.4l1 2.8.5 2.8.3.8-.2 1.4 1 2-.5.5.6 1.6.3 2.6-1-.4-.5-2-.7-1.6-.3-1.3-.5-.3-.6-1.2v-1l-.5-1h-1.4v-1l.2-1-.6-2.7-.7-1.4-.6-2.3-1-1.3v-2.6l.4-.4 1 3.6.7 3 .8.7v-2.5l.6-.8-.6-2.6.7.2.7 2.3zm447-134.6l-1.3-2.3-2-4.2-.7-2 .2-.3 1.3 2 1 1.6 2 3.6.6 2.5zM46.4 233l.7 1.4h.8l.6 1.3.5 1.5.5 2.6.3.6.4 3.3.4 2.8v4l-.2 2.2 1 3-.2 2-.2 4-.2 3.3.4 1.2.3 2.5-.5.3.7 2.8.2 3.5h-.6l-1-2-.7-2.4-.5-2.7-1.5-5 1.4 1.3v-2l-.3-2.5v-1.7l.8-2-.5-2-.2-3.8V249l-.4-5v-1.7l.7 1-.3-3.8-1.2-1.6-.2-1.6h-.5l-.4-1.7zm8.4 18.5l1.3-.5.3 1-1.2 3-1 1.2-.2-.8.8-2zm421-144L473 105l-2.8-3.2-.5-1 1.4 1 3.7 3 2 2.2v1zM58.5 245l.5 1.5.4 2.4-.4.5-1.2-3.5zm1.4 3.6l-.3 3.7-1.5.8v-.8l1-1 .4-2.3zM432.3 68.4h-.8l-2.4-1.4-1.2-1.4-1.8-1-1.5-1.7.3-.4 2.5 1.4.4 1 1.6 1.2 1.7.6zM392 347v.3l-2.4 3.3-1.7.4-1.3-1 1.3-1h.2v-1.2l2.3-1.2 2.3-2.7-1.4 2.6zm-33 15.6v-1.8l2.2.5 2.5-1.2 2.4-.7.3.6 1.6-1.3-.2 1.3-4.6 2.3v-.6zm-39 2.2l.3-2 4-.5 3.3-1.2 2.5-1-.6 3.4.7 1-.2 2-3-.7h-1.7zM304.4 354h1.8l1.6-1.3 2.3 2.5v5.2h-1.5l-1.2 1.5-1.4-1-.7-4.7zM439 76l-2.8-2.5-2.4-1.3-3.4-2.5-3-1.8L422 63l-2.3-2.3-6-2-.7-1.5-5.6-2.8-2-1-4-.7-1.5 1-2.4-.5-3-2 1-1.7 1.5-.4 4.3 1.4 1.7-.5 2.3.4.4-.5 2.5.7 4.3 2.6 4.8 3.8 5.6 3.3 1 1.5h-1.2l4.8 4.2 3.7 3 3 2.7-1.3-2.4 4.6 2L440 73l.5 1-2.2-.7 1 1.6zm-134 273l.5-1.6 1.8-1.8 1 3.3-.7 3.3-1.6-.6zM396.3 55l-2.7-.3-2.7-2-3.4.7-2.2.2-1-3L383 49l-1.3-1.3-2.5-.8 1.3-1.5 4.3 2.3 4 .7 2.8 3.3 3.4.2 2.8 2zM123 244.2h1.3l-1 2.2.7 2 1.4 2.3h-2l-.5-1-.7-4zm9-8.2l.7.6 1 3.7v3.4l-.5.5-.7-1-.7-3.8zm21-153l.5.2-2.3 2-1.5 1-1.8 2-1.6.4-2 .8-2.8 2-2.2.6.4-1.2 4-3.3 1.4-.4 2.5-1.6 1-.2 2.3-2zm-19.8 170l2 .3v-1.7l3 .2 6-2.2 2.6-.3 2.2.8.6 1-1 .5-2.6.7-3.5 1.2 2 .4.4 2-1.6.3.7 2.7 1.5.3 1 3-2.6 1.5 1.5 1-1 1.8-1.2 2.6-3 1.6-1-1-.5-2 2.5-1.8-.2-1h-4l-1-1.4 2.4.2-1-2.8-2-2.3-2.8-4.5zm37-176l.6.6-1.2.6-1.4 1.8-2.5-1.7-3.6.8.8-.7 2.3-.6 2-.2 1.6-.5zm203-15.7l-3 1.8-3-.6v1.2l-1.3-.4.7-1.4L368 60l2-1.3 1.3-2 1-3.7 3 2.6 4.2-.6-.4-2.7 1.5-.7.7 2 3 .2-1 1-2.3 1-2 1.3-2 .6-3 1.6zM258.8 295.7h2l2.5 3-1.6 2.8v3l-2.2 3.7-5 2-3.7-1.3 2.8-4.2-.8-4.5 4-2.8zm45.4-4l3.4-2 1 2-.7 3.7-3-2zm-84-237l-1.4 1.6-.8.8-1.5.6-1.4-.2 1-1.7 1.4-1.7h1.5zM262.8 289l1.3-4.4 2-3.3 2 .5 2.7-.2-2.7 4.5 2.4-.4 2.5.2-.8 3.5-2.3 3.7 2.4.4 2.3 5.6 1.7.7 1.6 5 .7 1.6 3.2.7-.3 2.8-1.4 1.2 1.2 2.2-2.5 2.3h-3.7l-4.7 1-1.3-1-2 2-2.4-.7-2.2 1.5-1.4-1 4.3-4 2.5-1-4.2-1-.6-1.6 2.8-1-1.3-2.5.6-2.8 4 .7.3-2.4-1.7-2.8-3-1-.5-1.2 1-1.8-.7-1.3-1.3 2v-4.2zM250.5 52.4l-2 1H247l-.5-.8 1-.7h1.7zm-88.7 126h.3l1.4.3v.8l-.6.8h-2v-1zm.7-7l2 .7.3 2.5-.8.2-2.4-1.4V172zm99-112.3v1.2l-1.2-.4-1 .5-1.8-.5h-2v-.3l1.4-1 1.5.5.8.4 1.7-.4zm-95.3 105.3l2 1 3.2-.6 3.6-.3-.2 1.2-1.7.8.8.7-1 1.3-1 2.3-1 2.3-1.8.7.5 1-1 1.8-1.5-1 .5-3 1.6-1.7-2.2-1-2.3-2 2.3-1.2zM235 243l2-2.2 2.8.4 1.6 3.7 3.3-1.6 1.7 2 3.4-1.6 2.7 1-1 2.6 1.3 3.4-3 2.7-6.2 1.5-1.8.2-2.2-1.3-4.6-3.2 2.4-1.2-3-3.4 3.3.4.4-1.3zm-50.5-67.6l2.4-.2.8 1-.8 1.6-1.6.7h-.6l-1.4-.4-.7-1.5zm93-113V74l-4-2.2-4.6-2.6v-2l-1.4-.5.7 2-4.7.2-4-2.3 1.5-1.5 3-.7-.5-2.7.7-.6 1.8-.2 1.5 1 2.6.5.6 1.2 2 .4 2-.4 1 1-.4 1 2-.6-.7-1.4zm-86.7 79l1 1.3 1.7 1-1.4 1.4-.7 1-1 .4-1.5 1-1.3-.8 1.4-2-.3-1zm88.5-60.7l-1.8 1.3v-2.2h1.6zm-1.8-1V82h-1.2l-2.2-.8.2-.4 1.4-.8zM31 296.5l.5 2 .2.7-.2-1.5-.2-.7-.5-3v.2-2.4 1l.2-.3.3.3v-1l.4 1.7.6 2V294l.2 1.4v-1l.3.2.5 1.7.5.5.5.5-.2-2 .4-.3.2-2.6.3.3V284l.4.4-.2-1V282l-.2-2.5-.4-1.5h-.4l-.4-1.2-.2-.8h-.2v3l-.2-1-.2-.2-.4-1.7.2-1.8-.2-.2v-3l-.2-1.7v-1.3l-.3-1.6v.3-.6l-.2-2.6v-1.2l.2.2v-.6l.2-1.5V255v.8l-.3-.3v-3.7l.3-.5h.3v-1.4l.3.5v-2l.2-2.5.3-1.4.2-2.3.3-2.6h.2v1.2l.2-1.2V238h-.2V234.2l.2-2V230l.2-1.5.2-2.2v-2.5l.4-2 .5-2.8 1.4-6.2.7-2.5.5-3.6V200.6l.8-3 .7-3.3 1-4.2.8-3 1.4-5 1.2-3.7.6-1.3.5-2.2 1.4-4.2 1-2.2 2-4.7L51 161l1-1.5-.2 1 .5-.6.2.3.5-.4 1-2 .8-.7 1.2-2 2.6-4.2 2.5-4.3 1.8-2.4 1.8-3.3.7-1h1l1-2 1.7-2.5 1.7-1.5 1-1.8 1.7-2.4 1.6-2 .7-.4L78 125l2-1.6.8-.3 2-2.4.3-1 1.6-2-.6-.2-1.3 1-1.6.7-1.3 1.5-2.5 3-.7.6-.3.7-1 .7v.6l-1.7 1.2-1 1.2-1 1L70 132l-2 2-1.3 1.5-1.2 1.4-1 .7-.7 1.6-1.3 2L61 143h-.2v-1l.2-.5 1.4-1.6 1.8-3 2-3 1-2 1.3-.6 1-1 1.4-2 1.7-2.5v-.4l1-1 1.3-2.3 2-2.4-.7 1.4v1l1-.4 2.5-3 1.4-2 2-1.6 1.8-1.6 2.4-2L90 110l1.3-.7 2.3-2.2 1-1.3.8-.5 1-1.6 1.3-1.2 2-2.6.7-.8 1.4-.5 4-3 4.6-2.5h.5l1.4-1.2 3.4-2 2-.4 2.4-1.4 1.5.6h2.2l2.3-.6 1.6 1 4 1h4l2.7-.3 1.7-.4.4.3-3.3 3-3.4 1 .4.6h2.5l2.7-.5.2-.3 5.7-3.7 2.3-1.2 4-3.4 3.4-.3 1.5.7 3-2 2.6.4 4-1.5 1.4.5 2-.6 2.2-1 2.8.5 4.3-1 3.4.3 1.7-1.3 2.7-2.3 2.8-1.2 6-1 2-1 4-1.5L204 71l4.4-1.5 3-.4 1.6-1.5-1.8-1 1-.8L214 64l1-1.5 1.8-1.5 1.3 1 1 2.6-1.4 1.6 1 .3L220 64v-2l1.7-2.7-2.3-.4.7-2.4 1.7-1.8 1.7-1.5V52L226 50v-1.2l2.2-1.8 1.7-.4 1.8-1.3 2-1.3 1.6-1.2 4-1.7.4.3-2.2 1.7-2 1.3-2 1.8-2.6 1-.6 1.4-2.4 2.3-.2.6-1 1.4.6 1.7-.2 1.8 2-1.6 1 .2.5-1.2 2 .6.2-1 1.3 1L236 52l1.3-.3.8 1.3.2 1 1.7.4 2.5-1.2 2.2.7h1.7l.5 1.5 2 .7-.4 1.6-1 1.8-.2 1.5-1.4.7h-1.5l-1 1.6h-1.4l-1 1.4 1 1 1.3.2-1 1.3 1.2-.4 1.6-1.2.4-.7 1.7.2 2.5-1h3l1 1 2.8 1.2-2 1.6-3.4 2.3-1.5.3-.3-1.4-3.5 1 2 1.4 2.5.5 1.7 1.2 2 .8 2.4.5-.4 1.7-2.6.7-1.4 1.7.2 1.5-.8 1.8-1.2.8-2 2-1.3.3-1.3 2.4-2.3.2-1.7-.8-.2.8-2.3.8-.3-.7-2.4.5-1 1-3.4.6-2.6 1.2-1.3.3-1.2 1.4-2.4.6-1.7.6-3 1-3 .4-1.5 1 .2 1.6-.4 1.8-2 1.2v2.3l-1 2.2h-2l.2 1 1.3 1.2-1 .5-4.4.4 1 2.5-2.6-.8-.5 1.6.7 1-1 1.2-2.8 1.3-3 2.5-1.6 1.5-.5 1.3-2.6 1.4-1-2.3-2 2.3-1.2 3.8.2 1.3-3 1.3 1.5 1.8 2-1.2 1 1-.4 1.8v1l-1.2 1-2.6 1.4v1.6l-2.5 2.6.2 2.3-.5 2 2.5-.2.5 1.3-1.7 2.3-3.8.2 3 .7v1l4 .3 2.6-1.7 2-1.6h4.4l2.8 1.2-.8 1.6-2 1.5-4.6 2.3-2-1-1 2.7-4 .6 3.2 1.3-2.6 2.2h-3l-2.7 2.2 3 1h3.6l4.5-.8v2l-.5 2-1.7 2.5-2 .7-2.3-.5-2 1.7-2 .5-3.2-2.3-.7-2 1-2h-2l-3.5-.7H171l-2.7-1.4-.3-2.4-1.6-1-2.5.3-.6-2-3-1.7-4.2-1.3-3-.2-4.2.6-1 3-3.4 1.7-2.8 1.7.6 2.8-1.6 4.4-1.3 2.6-1.6 2-1 3.2-1.3 3 .2 3.7v2.7l-3.2 1-3.4 2.2-3.5 3.3-2.7 5.2 1.5 1.3 3.7-.5 5.2-4 1.5-2.4 2.4 2.7 3 1.3h2.8l2.4-1.4 2.6-3 2.2-3.6 4.4.6 3-2.4 6-3 1 .8-.2 3.5.2 2 1.4 1-.7 2.3-1.4 3.3-1.2 1.4 1 3.4-3 1.7-4 3.3v2l-1.3 2.8 3.2 1.5 4.5-.8h2.2l-2.2 3.7-3 5.4-2.6 5.2-2.6.8-.2 4-.7 3.3 1.3 3.8v2l-2 3.3.6 2-.5 1.8-3.2 3.4-2.2-.4-2-.5-3.5-2.4-4-.4-2.8-3.4-2-5.3-2-3.5-1.3-2.2-3.2-.2-2.7-2-5.4-.6-4-.8 1.4 1.8 5.6 1 4.8 3 2 3.4-.3 3.3-3-.6-2.8 3.5-1.7 2.7.3 4.5 2.7 3.7 4.6-.6-1.8 2v2.6l-3.7-1.2-4.8-4-2.4-1.5-3.5-1-.8-2.2 2.3-2.2 4.6 2.4-2.3-4-1.7-2.5-.7 1.2-2.7-1.6-2-2-2-2h-3.2l-1.5 1-1.2 2.2.4 1.2 1-1-.4 1.2-.8.4-1.2-1.5-.5-1.4L99 237l-.5-1-.7-1.6-1.6-1.8 2 3.8-.3 1.2-2.3-3.3-.6-1.8.5-.2-1-.3v1l-2 .8-2.7-.5.6-.8v-.7l.3-1.5-1.3 1.7-.2 1-1 1-1.3-.2h-2.6v-.4l2-.5.6-2.2 2-2-1.2.3-1.5 2v-2.2l-.4 2.6-2.5 2v1l-.8 1-2.3 2.6-2.4-.4-1.5-2.7-2-1-.5-1.5-1.2-1-1 .2-2-2.3-1.5-1-1.7-.4-1.6.8-1.4 2-1.7 2.7-1.3 3-.8.7-2 4-1.5 1-.7.7-1.3.3-.4-.8v-2l.7-1.4.2-1.7 1.3-3.5 1.2-3 .7-1.3 1.5-.5 1-2 1.5-4.2v-1.6l-1.2-2.7v-.7l1-2.4.3-2.6-.5-3.6v-5.7l-.4-1.3-.6 1.2-1 .6-.3 1-.3-.4.3-1.6-.4-1 .2-2.5 1.2-3.4-.2-2.7.7-2.8v-2l-.4-2.6-1.3-2.2-.4-2.8-1-1.2-.7-.2-1.3 1-1 .8-.7 1.2H53l-1.3.3-2.3 1.6-.8.4-1 1.4-1 2-1.2 1.8-1.5 3.6-1 1.8-1 2.3-.6 4.3-.8 2.2.2 2.8v5.2l.2 2 .5 1.7h1l1.2-1.2h.4l.5 2 .5 3.6v3.4l.3 2-.3 1.3-.8.7-1-1-1 .3-.2 1-.6.2-1 .5.2-1.4v-.8l-.3.3v1l-.3.3h-.6l-.2.7-.5.3v.4l-.8.5-.4-.3v-.7l-.5-.2V232.8l.2.5v4.2l.2 1.6.2 1 .2.2v3.4l.3.5V251.3l-.3 1.5v-.2l-.4.3-.3 1-.5-.3-.5.4-.4.8-.3.7-.4 1-.2-.5-.5.5-.2.7-.2-.3-.2.6v1l-.4 2V265.3l-.2 2v2l.2.3v1.5l.4 1.8.4 1 .6 2 .5.8.5 2.2.3 2.3.3 2 .2 1.8.2 2 .4 2 1.3 1.6.6 1.4.2-.6.8-1 1 1.2.8 2.3.2-.2 1 3 1.3 2 .6 1 1 .7.5 1.4.2 1.4h-.6l-.2.4-1-2 .2 2.2-.4 1-1-.4v3l.6 1.5.8-.6-.2-1.8.5-1.8 2 3.8.2-1.5.7.7v2.8l1 2.6.5 3.6-.2.8 1.5 3.2 2 3.6.5 3 1.3 3 1.3 1.3v-.5l2.5 4.2 2.4 4-2-2.2.3 2.2 1.6 3 1 3.5v2.3l1 1.7.8 1.8 1.3 3 1 3.5v1l.8 1.4 1 2.8.8 2 2.8 4.4h.3l2 2.4 2.7 4 .8 1.4 1.8 2.8 2.6 5 .3 1.3 1 1 .4 2 1.3 5 1.5 2v1.3L84 397l1 1.6 5 5.6v2l2.2 1 3.8 4.3 5 5.8 1.6 2.4-.4.5 3.6 2.6 6.3 6 5 4 5.2 5 4.6 5 2.8 2 3 2.2 1.3 1.3 1.5 2.6.7 1.2-.8 1.4-1.5-.4-4.3-1.5H128l-2-1-.7-.5h-.4l1.4 2.2.3.7.2.4-.8-.5.7.5h-.3l-10.2-8.3-9.8-8.6-9.3-9.2-8.8-9.7-8.4-10-7.7-10.6-7.2-11-6.7-11.2-6-11.6-5.4-12-4.8-12-4-12.5-3.6-12.6-2.8-12.7zm161-167.6l1-4 .5-2 2-.3 2-1.5.2-1.2 3.7-.7v1l-.4 2-1 1.7-.2 1.8 2-2.2 1-2.6 1-1.6h1.8v3l1-1.8 2-1.6 2.2 1.8 1 1.2.7 3.5-1.2 1-1.5-1v2.6l-2.7 1 1.6 1.8-1.7.7-4.3.5 1.5.8 4.3-.2.2 1.2-1 1-2 1-4 .3-3 .2-2.6 2-2.3 2.3-1.8-.2v-2.3l-1.6 1-1.4-.6 1.3-2.6 1.8-2.3.3-1.5zm17.4 5l.5.6-.4 1.4-1.2.8-2.3-1.3zm-2.7 29.3l1.5-.3.4.5v2.6l-1.7 2.7-1.2.5-.2-1.3-.2-1.2-.8-1 .2-.5zm-5.5-10l3.8.5 1.7 1 1.3 2.6-2.8-.2-2.5 1.4 3.4.4 2.2 2.4-4 3-2.7.7 1.7 2 1.8.6-1.3 3.3-1.5 2.3-1.7.8 1.7 1.8-2 2.4-.4 3.7-1 2-3 3-3-1.4-1 4.5.4 2.6-2.3 4 1 2.4-2.8 1.3-5.6.4.6-3 2.3-4.3-1.3-1.6-2.2 1-1.4 3-.7 3-.7 1.2-3 3.3-2.8 1v-2.6l1-6-2.2 4.3-1.3 3-1 1.2-.8-5.7.6-4.8 1-3h1.3l1.2-3.4 1-3.2-1 .6-2-4.6 1-2h3.2l.8 3 1.5 3 1.2-1 2-.4 4.4.2 1.5-1.2 1-1 1.3-3 .5-3.4 1.3.5 2.2-2.4V171l1-1.5-1.3-.3-1-2.3.2-5 1-3.2.5-2.3 1.4-1.3 2 1v-2zm3-14.5h1.2l-1 2.4 3-1.2 1.7 1.4-1 1.3.2 2-1.3.2-2-1-2 1.8h-3.6l-1.3-2 .6-1.3 1.8-1zm119.4-35.3l-2 .3-1.4-.7-.4-2 .5-.6 1.6 1 1.6 1.7zm-119 42.8h2l1.7.5 1 1-.2 2.3-1 2.2-3.7-1.3-.7-1.4-3-1 .2-1.4zm4.4-32.3h2l3.5-1.5.8 1 2.3 2 1.6 2h2.8l-1.6 3.2-1.6 1-1.7 2.4-1.5.6-2.2.6-.2-1.6-1-3.4-1.7-2.2-1.5-.6zm104.2-10l-1 .8-1.4-1.4-1.8-2 2-.5 1.3 1zM213 145l1.8.5 1 1.4-1.6.8-1.4.5-1.5-.5.4-1.5zm108-35.3l-2.5 1.2-1.6-.4-2-1.8-1.8-3.4 2.5-1.5 3.3 2.2 2 .6zm-101 30l-.5 1 1 1.4-.3 1.4h.5l-2 .7h-2.2l-3-.4-.2-1.7 1-1h2.3v-1.5zm1-14.7l3 2.4.7 1-2.5 2.2-3 1-1 1.6 4.4-.5 1 1-.7 1-2-.2h-1.7l.4 1-.5 1-2-.2-1.8-.8.6-3.4-.7-2.8.6-1.5 1.3.2.8 2.3 1.7-4.3zm117 72v-1.5l-1.8-1.5-1.4-4.2-1 .5-1.4-4.5-1.8-1-.5-3.2-.5-4.3 1-3-.8-2.3.2-2 1.8.3 1 1 .4 4.2.2 3.8 1.7 5 2.6 4 2.2 4 3 2h4.3v1l-3 3.2-1.8-1-2.4 1zm-117.4-52.3l1.7.4-.4 2-1.6 1v1.7l-1.5 1-1.7-.2-1 1.2-1 .8v1.3l-.3 1.5 1 1.4.6 2v1.5l-1.4 1.5-1.7.7-1.2-.4-1.2-1.3.4-1.4-1-3v-2l.4-2 1.4-2.8 2.3-.5 2-.2 2-1 .7-2zM227 122l2 2.5 1.3 2.5-.8 1v1.4l-3-1-.8-1.2.2-.8-.7-2.2.3-1.5zm197.2 179l.3 1.4-.3 1.5 1 1.4 2.3 1.5 2.5-1.7 2.6-.2 3.4-3 2.7-4.7-.3-1-2-1.5-2-3.4-2.2 1-1-2.7-1.4 1.5-1.5-3 2.4-1.6 1-3H429l-2-1-1 2.6 1.5 2.4-2-1-.8-.8-.5-1.8-1.2-.6-3 1.7-3-1.7-1.7.5-1-1 2.3-1.8-1.7-2.3 1-2.4 2-1.5-2-3.3-2-1.4-1.6 2.4-2.2 1-1 3.8-1.4 2.6.5 2.8-1.6 2.5.3 5.5 4 1 1.3 2.5 5 1.3 2.2.5 2.6 1 1.3-1 1.2.2-1.6 2zm98.2-97v.3l-.3-1.7.2 1-.2-.3v2.2l.6 1.6h-.2l-.5-1.6-1-2.8-.5-1-.8-2.4-.3.3-1-2-.4.5-1-.7-1.4-1.4-.8.2 1 3.3 1.3 5.5.2 2v2l-1.7-3.5-1.2-.8-1.4 1-.7-1v2l-1 1.2h-1l-.7-.5h-.7l-1 .4v3.2l.6.4 1 2-.4 1.3.3.8-.2.8v1.3l.5 1v7.5l1.2 1 .8 3 .5 6.7 1.2 6.3.5 4 .3 5 .6 1v2.2l-.2 4-.3 2 .7 2.6 1.5 1.8 1 1.5.5 3.4 1.4 3.3-.4 2 .2 3.2.5-.5-.7 4 .2 2.7-.2 2-1.5 2-1.5-1.2-1.2-.5-.7.3H513l-1.6-1.5-1-.7-2.4.6-3-2.5-2-1.6-1.7-2.6-1.6-1.3-1 6.4-1 2-3.7 2v-2.5h-1l-3 2.2-1.5 1.8-1.6-.6-2.6.7-2.7 6.4-2.8 5.3-2.5 4.8-4.2 5.3-2.5 2.7-2.6 3-3-1.8-1.2 1-1.4 2.6-1.4 4.2-3.4 2.6-3.5.8-2.8 2-3-1-4-1.8-1.2 1.8-2 .7-.4 2.2-1.6 1.4 1.2.8.2.8 2 1.4 2.3 1.4 1.7-.6 1 .5 2.3-.8.8 1 .2 1.2.8.6h1l1 .5.7.3-1.2-1.8-.2-2.2.7-1h1.2l.8 1.5.3 2.2 1 .5.5-.6.4.6 1.6-2.7 2-2.3 1.5-1.7.7-3.7.7-4 .5-3.4v-1.7l.3-.2.5 1.4v.8l1.5 1.7 2 .4 1.8-.8 2-2 1.4-1.2h2.9l1-.8.2.5v2.6l.2 1-.5 2.2.2 3-1 1.2-.2 1.2.3 1.8 1 1.2v.6l-1 1.5-1 2.8.4 1.5-.3 1.3-1.4 2-.7 1.7.5 1-1 2.2-1.3 1.4-1.3 3-1 1.4-1.7 3v1.5l.2 1-2.2 4-4 5.8-1.8 4.3-1.2 1.4-1 .7-1.3 2.7-1.7 2.2-2.4 2.5-.6 1-.5 1.2-.8 1-.3 1-1.6 1.2-1 1.2-2 1.7-1.2-.7-.3-1.5-.8-.2-1.2-1.3-1.2-.3.6-.6-.7-1 .2-.8-.6-1-.7-.7h-1.2l-.6-.8-2 .3-2.4-1-1.7-1.4h-3l-1.4.5-3-1-1-1.8-.6-1.8-3-2-2-.2-1.8.6-1.7-1v-.8l-1.5-1h-1.2l-2-1.4-3-1.3-2.4-1.2-1.5 1-.3-2-.3-1.2V364l-.3-.3-.3 1.8.2 2.8-.4 2.2-.5 1-1.4-.4-2-.4-3.8-3.3-.3.5 2.6 2.6 3.2 2 4 3.5 2 .8 1.6 1 4 1.6-.4 1 .7 1.8h4.8l.8.3 2 2-.6 1 1.4 2.7 2.3 2.5 1.4-.2 2.2-.3 3 1.7 1.5 1.7h2l5.2-1h5.4l1.7-.5h1l.2 1.2-1.7 2 1.6-.4 1.2-.4.8.4 1.6-.2 1.6-1.3 2.7-3.2 3-3.3 2.4-3.3 1.4-1.5 1-1.5 1.5-1.7 1-1 1-1.7 1.5-1.8 1-2.2 1-1.2.3.7.2 1.6.4 1.2-.4 1.4v3.2l-1 4-1 4.5-2 5.7-2.2 4.8-3.2 6-3 4.6-4.4 6-3 4-3.5 5-1 1.7-.6 1-2.4 2.5-.8 1.4-1.3 1-.7 1.6-1 1.5-1 1.6-1.3 1.6-2 3v.8l2.2-1v.2l-1 1.6v.3l-.5.8h1l.8.2 1-.6h.4l-.7 1.4-.2.7-.8 1.7h.2l-1.4 1.5-1.8 1.6-2.6 2.2-3.2 2.5-4 3-4.7 3.3-1.5 1-3 2-1.5 1-1 .7.6-.3L400 472l-11.5 6-12 5.5-12 5-12.4 4-12.5 3.7-5 1.2.3-.2h-.3l-1.3.2-1.8.2H326v-.4l-.2-.3.8-.8 1.6-1 .4-.4 1.5-1 1.2-.6 2.5-1 1.4-.8.7-1v-.4l-1.3-.2-1-.4-1-.5.4-.4 1.3-.8-1-1-.8-.7-2-.3.3-.4-.5-.3-1-1-3.5-1-4.4-.7-2.7-1-2.6-1.4.2-.7.8-.7 1-1.5 1-1.4-1-.2 1.6-2.4.6-1.7-1.7-1-2-.2-1-.7-1-.2v-.5L310 470H308l-1.6.6-3.5.3-2.2-1.2-1.5-1.5-3-1.3-3.3.3-3.8.2-3.6.4-3.5.4-6.7 1.3-2.4.8-4 .5-4-.8h-2l-3-.6-2.7-.2h-5l-3 .3-4.4.3-1-.2h-1l-4.5-1.7-3.8-2.2-3.6-1.8-2.7-2-1.2-.3-3-1.6-2-1.6-.7-1-.4-2-1.8-1.7-1.6-1.3-1-.6-1-.7-.4-1.2-.6-.7-1-.6-2.3-1.6-1.7-.6-.8-1v-.4l-1.2-.8-.2-.7-.4-2.2.6-1-1.4-2.5-2-1.5h2l2-1.4 1.2-1.2v-1.7l1.2-1 .8-2.7v-3l-.3-1.6.7-1.4-.8-1.8-2-1.8.4-1.3.4-1.3 1.6-.4 1.5-1.3-.2-1.2 1.7-2 2.4-1.4 1.3-.2 1.3-1.7.3-1.7 1.6-1.8 2.7-.6 3-3 2-1 3.5.4 3.3-1.8 2-.7 3.5-2.4-.5-4.7 1.8-3 .6-1.7 2.6-2.2 3.8-1.2 2.8-1.2 2.7-3.7 1.2-2.2 2.6.4 2.2 1.8h3.4l3.6 1h1.6l3.4-2 3.8-.6 2.3-1.6 3.3-1.2 6-1 5.7-.6 1.8.5 3.2-1.8 3.7-.6 1.4.8 2.4-.6 3.5-2h2.5v2l2.8-2 .4.8-1.5 2 .2 2 1.3.6v3.3l-2 2.3.8 2 1.8-.3 1.2 1.5 1.4.4 4.4.4 1.4-.6h3l5 .4 2.3 2.8 3.3-.2h5.4l4 .7 1.7-1.5 1.3-2-1.4-2.5.7-2 2-2.6 2.3-1.2 4.8-1 1.6 1 1.2-.4 1.3.2 3.4-1 1 .8 4.5-2 3.5-.6 3.6-.5 1.6-.3 2.2-2.3 1-1.7 2.7-1.8 2.6-.8 1.4 1.2.4-1.5 2.8-.6 2.5-1.3 1.2-1.6.3-1.7h-.2l.3-2-.4-3v-4.5l.4-3.3v-.3l-1.4-2.3v-2l-1.7-.7.5-2-1.5 1.4-2.8 1-1 3-4.4 3-3-.4-3.4 1.7v1.8l-2 1.6-3.7-.4-3.5 1.7-3-2.8-3-1 .6-3.5-2.4-1 2-5 4.6-2.2.2-3.4 5.6-2.3 2.3-4.2 2.8-3 4.4-2.7 5.8-.6 4.5-1.2 2.7-2.7 2.3-1.4 2-4-.5-2-2-1.7h-2l-1.6.5-1.5-.3-4.6-.6-3.5.5-3.4-.6 1.5-2 .5-4.2-2-.5 2.6-4-.5-.6-1.7 2-1.7 1.7-1 2.2-2 1.7-1.5 2.7 1.3 2.2h1.6l2.5-1.8v1.6l-2.4 2.4-2.5 4.2h-1.6l-.3-2-3.2.7.2-1 1.8-2.6-1-.4-4.5 1.3-.8-1.3-2 1.8-.2 2.7-1 3.8.5 1-1 1.4h-1l1 5-.8 2v3.3l1.7 1.6 1 1.2h2.8l-.2 1-3.3 2-1 1.7-1.7 3-1.5-1.3-.2-.7-1.8.6-1.7.4-3.3 2.4 2.8 1.3-1.4 1.2-1.6.6-2.2-1.3-.3 1 1.2 2 2 1.2-.8 1.2 2.2 1 2 .5.5 2-3 .3 1.4 1.5-2 1 2.2 3-2 .8-3.2-.7-2-2.4-1.2-2.3-1.7-1.2-2.2-1.5-.5-1h-.6l-.2-1-2-.7-.8-1.7-.4-2.6V343l-.6-.4h-.7l-1-1-1.7-.4-3.2-.6-2-1-3-.4-3.2-2.3.5-.5-1.8-1.3-.3-1.4-2-.2-.7 2-1.2-1.2V333l.6-.6h-2.4l-2.2 2 .5 1.8-.2 1.3 1.3 1.8 3.3 1.4 2 3 4 2.3 2.5-.6 1 .6-.8 1 3 .7 2.7.5 3.2 1.2.5.7-.2 1.6-2.2-1.3-3 .2-.7 2.8 2.5.8v2.2l-1.3.6-1 3.7-1.4.7-.2-1.2.3-2.2.4-1-1.7-2-1.3-1.6H327l-1.3-1.6-2.2-.2-1.7-1.3-2.4.4-2.8-1.3-3.2-2-2.5-2-1.6-3.7-1.6-.2-2.7-.8-1.2.7-1.6 2-1.3.5-2.8 2.6-6.3-.5-4.6 1.6-.3 2.6.4 2.3-3 2.7-4.2 1-.3 1.3-2 2.2-1.4 3.2 1.3 2.2-2 1.8-1 2.5-2.5.6-2.5 3-4.4-.2-3.4-.3-2.2 1.3-1.5 1.3-1.7-.5-1.2-1.3-.8-2.3-3.2-1-1.5 1-1.6-1-1.8.3.8-3v-2.4l-1.5-.5-.8-1.6.6-2.5 1.5-1.2.4-1.6 1-2.4V353l-.4-1.6V350l.5-2.7-1-2 4.6-2.3 3.8 1.2 4.2.4 3.3 1h2.7l5 .2 1.8-2.3.7-8.2-3-4.4-2.2-2.3-4.4-2v-3l3.7-.6 4.8 1.3-.8-4.7 2.7 1.8 6.5-3.3.8-3.4 2.4-1 2-.8 1.5-1.3 1.8-6.4 3.4-2h2.2l.4-1 2-.5.7 1 1.5-2.5-.8-1.5-.4-2.4-1.3-2-.6-4.5.2-1.2.5-1.4 2-.6.6-1.3 1.7-1.4.3 2.2-.5 1.5.5 1 1.4.6-.4 1.6-.8-.4-1.2 3.4 1 2 .2 1.6 2.7.5.2 1.5 2.4-1.2 1.2-1.4 3 1 1.6 1 1.4-1.5 3.4-2.8 2.7-2.3h2.6l.5 1 2.4-.8v-2l3-2.4-1.7-3.3-1-3 .3-3 1.6-2.2 2.8 2.4 1.7-.8-.6-3.3-.7-2.5-.6.8-1.7-1-1-2.2 2-2 2.4-1.8 2.4-.3 2-1 1.3-3.3-3-1-3.2 2-2.8 3-3 2-2-1.7-2.2-.6-1-4-2.2-3.5v-2.7l.8-3.2 2.3-6 .6-1.3-1-1.6-3-1-2.3 2.2-.6 3.4 1 2.4-1.6 4.3-2.4 4.8.2 6.3 2.2 2.7 2.7 1.7-.6 5.3-2 1.6 1 7.3-.3 4.2-3 .3-.6 3.8-2.7.8-1.5-4-2.8-4.3-2.8-5.7-2-2.4-3.6 5.6-3 1.4-3.2-2-1.2-4.4-1.5-10 1.6-3 4.8-4.2 3.2-5 2.2-6.6 2.2-9 1.8-4 2.4-6.3 2.5-3 2.3-.5.7-4 2.4-1 2-1.8 5.2.8-1 2 2.6 1.6.6-2 3.4 1 4-1.4 7.6.6 2.3 1 1.8 2.2v3l-1.7 2.5-8 1.4-.8 1.2 4 1.3 3.5 5.4 2.7-.2h1.8l-1-1.8-2-1 .2-2 5-.3.6-1.7-2.8-2 .6-5.8 1.3-.8 2.2.2-1.3-3-2.7-1-1-2.5-2.7-1.3 4-1.8 2.4 1-1 2 1.5 1.7 2 .2 1-2.5-1.5-2.3.8-4 .7-6.4.8-.7 1 3 1.6-1.2-.4-1.8 1.5-2.4-.2-3 3 .2-1.4-3-2.7-.2-.8-1.4 3.2-3 2-1 6.6-2.3-1.6-2-2.6.3-.7-.4-1 1.2-1.7-1.4-3.2-1-1.3-.6-2.3-4-3.3-2.4-.4-1.2 2-2.4 2.4.7 2.8 2.4 1.6-.2 2.8.8 5.3 2.7 2.8-.5 2.4 1.8 4.4 5.4 1.2-1.4-1.2-1.3-.4-2-1.8-1.3-1.5-2-2.6-.2-2.3-1.7-.7 1.3-2.3-.6-3.6-2.7-3.8.3-2-3.2-3-1v-.5l2.5.4 4 2 1-1-3-.6-1-2.6.2-2.5 2.7-1.6-3.7.3-4.4-1.2-.6-2 .5-2.6-.4-2.5-2.3.4-2.7-1.6v-1.2l-2-2.2-.7-2.6-1.3-.4-.6-2.5 1-1-2.6-2-.3-1.6h-1.7l-2-.8-2.2-1.8 1-1.6 1.4 1v-2l2-.6-1.3-.6-1-2.6 1.2-2.4 1-1 2.2-.4 1.6.7 3.3 2 1.5.5v-1.3l.4-1.8-1.2-.7 2.2-1.2H342l-1.4-1.6-1.2-3.4 1.6-.8-2.2-4.4-2.7 1.2-.8-2.3-1.2-1.4.5-2.3 1.7-1.6h2l1.3-2.7-.2-2.3-4 1-.3-2.2-2.4-1-1-2.3H330l-1.3-1.7-1.8 2.7h-2.6l-8-7.8v-2L315 88l-5.6-1.7L307 85l-.7-1.7 1.2-2-1.3-1.4H304l-2.6-.8-2.6-1.2-3-.3-2-3-2 .5.8 2-1 1.4L287 77h-3l-4.4-1.6-2-1.3V62.5l2.3-1.2 2.3.3-1.6-1.5-1-2.3-1-.7-.2-1 .6-.8 3.8.6 6-1.6h1.8l3.5-1.6 3.5-1 1-1 2.6 2 6.3-.7.6 1 2.4-.5 2.7 1 1.5-1.3 3.6-1.5.5-1-2.3-1 2-3.2 2 .6 2-1.4-.5-1 4.8.2 2.2-2 4 1 2-1.7h4.8v1.4l-1 3-2 4.6-3 2.3-2.8.5-.8 1-3.7-1-5.5 1.6-4.8 1.2-4.6 1-3 3 2.4.4 2-1.7 6.5-1v3.4l5.4 1 7.6-1.7-.7-2 5 1.4 3.2 1.3-1.4 1.4 2.7 2 3.4.2 5.3 3.7 6.6 3.3 10.4 1 12.7 2.7-2.6-2.6.6-1.6L376 69l-2.3-.3-2-1.8-.4-3.7L373 62h4l2.6-1.3 4.4-1 6.4 1.2h2.2l5.5 1.5 5.5 1.8 2.7 1 4.2 2.4L412 69l.2 1.6 4.4 2.6 1 .2.8 1 1.6.7 1.4.7 1.5-.3 1.5 1.2.8.3 1.4.8 1.7 1.5 1.5 1h1l.4.3-.5-1-.3-1.4.6-2.2.8-.6h2.4l2 1 2.3 2.3 2.6 2 2 2.4-.8.3-2-.6-1 1-2-1.8-.4 1.6.6 1.2.7.3.8 1h-.3l.3.6.2.7-1.5-.7-.7-.6-.3.2-1.7-.7-.2.2 1 1.5v1.2l3.4 3.5 2.4 1.8 2.6 3-2-1.6-.6.5-3-2-.3 1.3 2.3 2.2 3.6 3 2.6 1.8 1.7 2.7 2 1.5.7-1.3-1-2.2h1l-.6-2-3.6-3.3-.7-2.3-1.2-1.7 1-.4 3.2 4 2 1.5 3 2.8 2.3 1.7-.7-2.8 1.4-.7.7-1.3v-1.6l1.5.4 1.8 2 .5-.4-.6-1.6 1.8 1 2 1.2 1.2 1.7 3.3 3 3.8 3.4 3.8 4 4 5 4 5.5 2 3.7 1.7 2.5v.8l1.7 2.5 3 5.3 1.7 3.8 2 2.5 1 2h-.7l-1-1.2 1.4 4.2 1 2 2.8 5.7 2.3 4.2 1.2 1.7.6-1.3.4-1.5-.4-2.5v-1l1.4 1 1.7 3.2 1.7 4 2 5.3 1.6 4.4 2 6.2v.3l-.7-2.3.4 2 .7 2.8v.7l-.4.2.4 2.7.7 3.4-.8-2 .7 3.5 1 2 1.7 4.5 1 2.7.4 1-.4-2.5h.3l.3.8-.2-1-.3-2.2-.2-1-.2-.8v-.6zM225 145.3v1.6l-1 .6h-.4v-.4l.3-1.6zm3.8-14l1 1v1.3l-1.2 1-1-.6-.6-1.7zm67.6 64.6l.2-1.2-1-1 1.4-1.5 1 1.3 1.5.4-1.2 2.4zM231 133l.7.2.8 1-.3.4-1.2.8-.4-1zm-1.2 10.8l-.3 1-.4.4-1.5 1-1.5-.3-.7-1.4 1-.6 1.7-.3zm3-5l-1 1.5-2 1.8-2 .5-2 .2.8-1.3 1.7-1 .6-1.8 1 1 1.2-1zm96.3 4l-5.7-1-.6-.4v-.6l2-2.2h1.7zm-43.4 47.3l1.8-1.8.7 1.4 1.2-.3v-1.5l1-.4 1.3 1 3.6 2.3-1.3 2.2.5 3-.5 1 .6 3.5-1 .5-2.8-2 .4-1.7-1.7-1-2.4-3zm4.4-3.8l1.8-1.8 1.3.6.3-1.4 2 .3 2 .7v2.5l-1.8 1.3H293l-.5-1-1 .3zm16.3-10.2l.4-1.4.7-.8 1 .7-.5-1-.3-1h1.4l.5.6-.2 1.2-.2.6.6.6v1H308l-.7-1.3zm13-27l-3-1.7-1-1.3 2-1.3 4-1.8 3.7-.2.8 1.6-1 2-1.5 1.3-3 .5zm-84.2-3.6l2 .5 1.2.4.2.6 1-.3v1.4l-2.2 1-1 1.2-.7 1-2.8 1-1.3 1-1.4-.8-3.2-1-.4-1.5.7-1.8 1.8-1h1.6l1 .7.2-1.5 1.5-.7zm7.3 3l.8 1 .2.5.8 1 1.6.5v.6l-1.3 1h2.4l.8.4.6.7.6 1.5-.4.4 1.2 1v1l.2 1 .2 1.4v1.2l-.6 1.3-1 .5-2.3-.3-1.6-1h-1l.5 1.2-3-.2-1.7-.5-3.7.3-1.2-1.2h-1l-1-2-.3 1-.7-.2-2 1.2-1.5-.3-1.5-.8h-1.8l-1.5-.8-1 .3.6 1.4-1 .3-3-1.7.8-2.7-1-2.6.4-1.5.2-1.8 2-.3 1 1.5 3-1 .4.6-1.6 2.5 2.6-1.5.7-1.4 1.8.6 1 1.2h1.6l1.6-1.3 2.2-.6v1.8l-.4.6 1.7.7.3-1.4-.5-2.2 1.5-1.3 1.7-.5 1.3-.8zM228 164.2l1.5-.3 3 2 3 1.6 1.6-.5.7-2.3 1.8-.2 3.8.6.8.5 1.7-1.2 1.7.6 1.5 1 1 1.3-.7 1.3 3-.3-.5 2 .4.8v2l.5-2.7 1.4-1.2 3.2-.5 1.3 1.2 1.5-.8 1.6.5 3 2.3 1.6 4.2-1.6 1-2-.5-3-1-.2.7 2 .6 1 2 1.7-.7v1.6l-1.6 2 2-.8 3.5-.7 1.5 1.3v1.8l-3.5 2.4-.6.8H263l1.4.7-1.8 2.6-1.5 2.4-1.5 4.5.2 3-1.5-.3-2 .7 1 2.6-1 3.6h-1.3v4l-2.5-.6.7 2-1 1.4h-1.8l-1.6-.5.4 3.2-.7 1.8-1.7-2.5-1 .8 1 1.6.8 3-.8 3.6H244l-.2-2-.6-3-.8 2.8-2.5 1.5 3.4 1.6 1.8 1-5.2 2-5.2 1.3-4.8-.7-1.6-1-2.2.8-4.3 2.8-4.8.6-1-.5-2.6-.5-2.6-.6-2.8 1.2-1.8 2.5-2.4 1.6-4.5.8-1.4 3.2-2.8 2.2-3.3 2.7-2.5-1.7V238l-2.8-2.8.2-3.2 2-4 1.4-6.2 1.4-2.6 2.7-3 1.4-4.4 2.7-1.7.4-1.7 5-2.2 2.6.7 1.7-.8 2.6-2.2h-2.3l-1-.3-1.2-.6v-2.4l2-2 2.3-1 .8 1 1 2.8.5-3.6.5-2-1.3-.5.2-1.5 4-1.4.8-1.6 2-2.6 2.8-4 .6-2 1.5-1 .8-3.6-.7-2-1.3-2-1.2-2 .8-1.7 2-2.7 2 1.6 1 1.4-.4-3.8z" />
  </svg>
